<svg id="accordianID" data-name="Layer 1" xmlns="http://www.w3.org/2000/svg" viewBox="0 0 303.5 225"><defs>
	<style>
		.cls-1{fill:#fff;}
		#accordianID:hover
		{
			fill:#B33E00;
			background-color:#00FFF5;
		}
	</style></defs><title>Accodian</title><path d="M13.43,7.5H84a0,0,0,0,1,0,0v208a0,0,0,0,1,0,0H13.43A13.43,13.43,0,0,1,0,202.07V20.93A13.43,13.43,0,0,1,13.43,7.5Z"/><rect class="cls-1" x="11" y="21.5" width="70" height="15"/><rect class="cls-1" x="11" y="37.5" width="70" height="15"/><rect class="cls-1" x="11" y="54.5" width="70" height="15"/><rect class="cls-1" x="11" y="70.5" width="70" height="15"/><rect class="cls-1" x="11" y="86.5" width="70" height="15"/><rect class="cls-1" x="11" y="102.5" width="70" height="15"/><rect class="cls-1" x="11" y="119.5" width="70" height="15"/><rect class="cls-1" x="11" y="135.5" width="70" height="15"/><rect class="cls-1" x="11" y="152.5" width="70" height="15"/><rect class="cls-1" x="11" y="169.5" width="70" height="15"/><rect class="cls-1" x="11" y="185.5" width="70" height="15"/><rect x="28.5" y="31" width="49" height="12"/><rect x="28.5" y="47" width="49" height="12"/><rect x="28.5" y="64" width="49" height="12"/><rect x="28.5" y="97" width="49" height="12"/><rect x="28.5" y="113" width="49" height="12"/><rect x="28.5" y="130" width="49" height="12"/><rect x="28.5" y="162" width="49" height="12"/><rect x="28.5" y="179" width="49" height="12"/><path d="M94.2,0h10.3a0,0,0,0,1,0,0V225a0,0,0,0,1,0,0H94.2a6.7,6.7,0,0,1-6.7-6.7V6.7A6.7,6.7,0,0,1,94.2,0Z"/><path d="M108.5,0h57a4,4,0,0,1,4,4V221a4,4,0,0,1-4,4h-57a0,0,0,0,1,0,0V0A0,0,0,0,1,108.5,0Z"/><polygon points="173.5 216 184.5 204 184.5 20 173.5 9 173.5 216"/><polygon points="203.5 216 214.5 204 214.5 20 203.5 9 203.5 216"/><polygon points="228.5 217 217.5 205 217.5 21 228.5 10 228.5 217"/><polygon points="198.5 216 187.5 204 187.5 20 198.5 9 198.5 216"/><rect x="232.5" width="71" height="225" rx="8.65"/><rect class="cls-1" x="245.5" y="5" width="46" height="212"/><rect x="251.5" y="41" width="34" height="140" rx="5.72"/><circle class="cls-1" cx="262.5" cy="59" r="4"/><circle class="cls-1" cx="262.5" cy="71" r="4"/><circle class="cls-1" cx="262.5" cy="83" r="4"/><circle class="cls-1" cx="262.5" cy="94" r="4"/><circle class="cls-1" cx="262.5" cy="106" r="4"/><circle class="cls-1" cx="262.5" cy="118" r="4"/><circle class="cls-1" cx="262.5" cy="130" r="4"/><circle class="cls-1" cx="262.5" cy="142" r="4"/><circle class="cls-1" cx="262.5" cy="154" r="4"/><circle class="cls-1" cx="262.5" cy="166" r="4"/><circle class="cls-1" cx="274.5" cy="65" r="4"/><circle class="cls-1" cx="274.5" cy="77" r="4"/><circle class="cls-1" cx="274.5" cy="88" r="4"/><circle class="cls-1" cx="274.5" cy="100" r="4"/><circle class="cls-1" cx="274.5" cy="112" r="4"/><circle class="cls-1" cx="274.5" cy="124" r="4"/><circle class="cls-1" cx="274.5" cy="136" r="4"/><circle class="cls-1" cx="274.5" cy="148" r="4"/><circle class="cls-1" cx="274.5" cy="160" r="4"/></svg>