<svg id="banjoID" xmlns="http://www.w3.org/2000/svg" viewBox="0 0 173 458"><defs><style>.cls-1{fill:#fff;}
#banjoID:hover
{
	fill:#FEFA50;
	background-color:#963021;
}
</style></defs><title>Banjo</title><rect x="79" y="45" width="15" height="243"/><circle cx="86.5" cy="371.5" r="86.5"/><circle class="cls-1" cx="86.5" cy="371.5" r="72"/><rect x="67" y="310" width="3" height="87"/><rect x="78" y="310" width="3" height="87"/><rect x="88" y="310" width="3" height="87"/><rect x="97" y="310" width="3" height="87"/><rect x="107" y="310" width="3" height="87"/><rect x="42" y="402" width="90" height="10"/><path d="M237,19l2,36h16s-1-28,4-36c0,0-5-1-7-3s-8-2-10,0A14.63,14.63,0,0,1,237,19Z" transform="translate(-160.5 -14.5)"/><rect x="69.5" y="11.5" width="33" height="5"/><rect x="71.5" y="19.8" width="29" height="4.39"/><rect x="73.5" y="29.11" width="25" height="3.79"/><rect class="cls-1" x="80.5" y="44.5" width="1" height="240"/><rect class="cls-1" x="83.5" y="44.5" width="1" height="237"/><rect class="cls-1" x="86.5" y="44.5" width="1" height="234"/></svg>