<svg id="cornet" data-name="Layer 1" xmlns="http://www.w3.org/2000/svg" viewBox="0 0 320.03 330.06"><defs>
	<style>
		.cls-1{fill:#fff;}
		#cornet:hover
		{
			fill: yellow;
			background-color: #5800B3;
		}
	</style>
</defs><title>Cornet</title><path d="M124.5,410.5l207-205s53-18,84-9c0,0,8,3,4-6s-41-58-93-93c0,0-5-4-2,5s-5,70-11,84L108,392Z" transform="translate(-100.59 -96.61)"/><path d="M101.75,390.25h0a4,4,0,0,0,0,5.55l20,20.79a4,4,0,0,0,5.66.05l.78-.78a4,4,0,0,0,0-5.66l-20.79-20A4,4,0,0,0,101.75,390.25Z" transform="translate(-100.59 -96.61)"/><path d="M187.28,271.86H331.76A51.13,51.13,0,0,1,382.89,323v0a57.4,57.4,0,0,1-57.4,57.4H197.24a56.89,56.89,0,0,1-56.89-56.89v-4.7a46.93,46.93,0,0,1,46.93-46.93Z" transform="translate(-254.56 183.9) rotate(-45)"/><rect class="cls-1" x="163.25" y="290.78" width="190.92" height="65.86" rx="32.93" transform="translate(-253.71 181.14) rotate(-45)"/><rect x="183.83" y="289.84" width="14" height="12.74" transform="translate(-257.31 141.61) rotate(-47.74)"/><path d="M256.53,300.84h14a0,0,0,0,1,0,0V416.56a7,7,0,0,1-7,7h0a7,7,0,0,1-7-7V300.84A0,0,0,0,1,256.53,300.84Z" transform="translate(-282.34 217.02) rotate(-47.74)"/><path d="M275.53,282.84h14a0,0,0,0,1,0,0V398.56a7,7,0,0,1-7,7h0a7,7,0,0,1-7-7V282.84A0,0,0,0,1,275.53,282.84Z" transform="translate(-262.8 225.19) rotate(-47.74)"/><path d="M294.53,262.84h14a0,0,0,0,1,0,0V378.56a7,7,0,0,1-7,7h0a7,7,0,0,1-7-7V262.84A0,0,0,0,1,294.53,262.84Z" transform="translate(-241.78 232.7) rotate(-47.74)"/><rect x="202.33" y="271.34" width="14" height="12.74" transform="translate(-237.57 149.25) rotate(-47.74)"/><rect x="221.83" y="251.84" width="14" height="12.74" transform="translate(-216.75 157.29) rotate(-47.74)"/><rect x="171.63" y="283.9" width="22.63" height="10.07" rx="4.54" transform="translate(-251.32 117.37) rotate(-45)"/><rect x="191.13" y="265.4" width="22.63" height="10.07" rx="4.54" transform="translate(-232.53 125.74) rotate(-45)"/><rect x="211.13" y="246.4" width="22.63" height="10.07" rx="4.54" transform="translate(-213.23 134.32) rotate(-45)"/></svg>