<svg id="mikeID" data-name="Layer 1" xmlns="http://www.w3.org/2000/svg" xmlns:xlink="http://www.w3.org/1999/xlink" viewBox="0 0 231.74 243.56"><defs>
	<style>.cls-1{fill:none;}.cls-2{clip-path:url(#clip-path);}
		#mikeID:hover
		{
		fill:#191970;
		background-color:#E6E6FA;
		}
	</style><clipPath id="clip-path" transform="translate(-143.98 -105.44)"><path class="cls-1" d="M282,127l64.5,64.5s6-7.78,6.74-21.56c1-18.09-8-35.52-23.77-44.36A44.69,44.69,0,0,0,311,120S295,118,282,127Z"/></clipPath></defs><title>Microphone</title><polygon points="45.02 200.56 155.02 109.56 114.02 68.56 22.02 178.56 45.02 200.56"/><polygon points="43.02 202.56 20.02 180.56 7.02 206.56 17.02 217.56 43.02 202.56"/><path d="M301,213l-41-41s-1-21,10-35l66,65S324,215,301,213Z" transform="translate(-143.98 -105.44)"/><path d="M277,130l66,67s3-3,3-5l-65-65A17.27,17.27,0,0,0,277,130Z" transform="translate(-143.98 -105.44)"/><path d="M272,134l66,67s3-3,3-5l-65-65A17.27,17.27,0,0,0,272,134Z" transform="translate(-143.98 -105.44)"/><g class="cls-2"><circle cx="123.05" cy="21.78" r="1.75"/><circle cx="128.74" cy="20.45" r="1.75"/><circle cx="134.43" cy="19.11" r="1.75"/><circle cx="140.12" cy="17.78" r="1.75"/><circle cx="145.81" cy="16.44" r="1.75"/><circle cx="151.5" cy="15.11" r="1.75"/><circle cx="157.2" cy="13.77" r="1.75"/><circle cx="162.89" cy="12.44" r="1.75"/><circle cx="168.58" cy="11.1" r="1.75"/><circle cx="174.27" cy="9.77" r="1.75"/><circle cx="179.96" cy="8.43" r="1.75"/><circle cx="185.65" cy="7.09" r="1.75"/><circle cx="191.34" cy="5.76" r="1.75"/><circle cx="197.03" cy="4.42" r="1.75"/><circle cx="202.72" cy="3.09" r="1.75"/><circle cx="208.41" cy="1.75" r="1.75"/><circle cx="127.53" cy="25.53" r="1.75"/><circle cx="133.23" cy="24.2" r="1.75"/><circle cx="138.92" cy="22.86" r="1.75"/><circle cx="144.61" cy="21.53" r="1.75"/><circle cx="150.3" cy="20.19" r="1.75"/><circle cx="155.99" cy="18.86" r="1.75"/><circle cx="161.68" cy="17.52" r="1.75"/><circle cx="167.37" cy="16.19" r="1.75"/><circle cx="173.06" cy="14.85" r="1.75"/><circle cx="178.75" cy="13.52" r="1.75"/><circle cx="184.44" cy="12.18" r="1.75"/><circle cx="190.13" cy="10.85" r="1.75"/><circle cx="195.82" cy="9.51" r="1.75"/><circle cx="201.51" cy="8.18" r="1.75"/><circle cx="207.2" cy="6.84" r="1.75"/><circle cx="212.89" cy="5.51" r="1.75"/><circle cx="125.19" cy="30.89" r="1.75"/><circle cx="130.88" cy="29.55" r="1.75"/><circle cx="136.57" cy="28.22" r="1.75"/><circle cx="142.26" cy="26.88" r="1.75"/><circle cx="147.95" cy="25.55" r="1.75"/><circle cx="153.64" cy="24.21" r="1.75"/><circle cx="159.33" cy="22.88" r="1.75"/><circle cx="165.02" cy="21.54" r="1.75"/><circle cx="170.71" cy="20.21" r="1.75"/><circle cx="176.4" cy="18.87" r="1.75"/><circle cx="182.09" cy="17.53" r="1.75"/><circle cx="187.78" cy="16.2" r="1.75"/><circle cx="193.47" cy="14.86" r="1.75"/><circle cx="199.17" cy="13.53" r="1.75"/><circle cx="204.86" cy="12.19" r="1.75"/><circle cx="210.55" cy="10.86" r="1.75"/><circle cx="129.67" cy="34.64" r="1.75"/><circle cx="135.36" cy="33.3" r="1.75"/><circle cx="141.05" cy="31.97" r="1.75"/><circle cx="146.74" cy="30.63" r="1.75"/><circle cx="152.43" cy="29.3" r="1.75"/><circle cx="158.12" cy="27.96" r="1.75"/><circle cx="163.81" cy="26.63" r="1.75"/><circle cx="169.5" cy="25.29" r="1.75"/><circle cx="175.2" cy="23.96" r="1.75"/><circle cx="180.89" cy="22.62" r="1.75"/><circle cx="186.58" cy="21.29" r="1.75"/><circle cx="192.27" cy="19.95" r="1.75"/><circle cx="197.96" cy="18.62" r="1.75"/><circle cx="203.65" cy="17.28" r="1.75"/><circle cx="209.34" cy="15.95" r="1.75"/><circle cx="215.03" cy="14.61" r="1.75"/><circle cx="127.32" cy="39.99" r="1.75"/><circle cx="133.02" cy="38.66" r="1.75"/><circle cx="138.71" cy="37.32" r="1.75"/><circle cx="144.4" cy="35.99" r="1.75"/><circle cx="150.09" cy="34.65" r="1.75"/><circle cx="155.78" cy="33.32" r="1.75"/><circle cx="161.47" cy="31.98" r="1.75"/><circle cx="167.16" cy="30.65" r="1.75"/><circle cx="172.85" cy="29.31" r="1.75"/><circle cx="178.54" cy="27.97" r="1.75"/><circle cx="184.23" cy="26.64" r="1.75"/><circle cx="189.92" cy="25.3" r="1.75"/><circle cx="195.61" cy="23.97" r="1.75"/><circle cx="201.3" cy="22.63" r="1.75"/><circle cx="206.99" cy="21.3" r="1.75"/><circle cx="212.68" cy="19.96" r="1.75"/><circle cx="131.81" cy="43.74" r="1.75"/><circle cx="137.5" cy="42.41" r="1.75"/><circle cx="143.19" cy="41.07" r="1.75"/><circle cx="148.88" cy="39.74" r="1.75"/><circle cx="154.57" cy="38.4" r="1.75"/><circle cx="160.26" cy="37.07" r="1.75"/><circle cx="165.95" cy="35.73" r="1.75"/><circle cx="171.64" cy="34.4" r="1.75"/><circle cx="177.33" cy="33.06" r="1.75"/><circle cx="183.02" cy="31.73" r="1.75"/><circle cx="188.71" cy="30.39" r="1.75"/><circle cx="194.4" cy="29.06" r="1.75"/><circle cx="200.09" cy="27.72" r="1.75"/><circle cx="205.78" cy="26.39" r="1.75"/><circle cx="211.47" cy="25.05" r="1.75"/><circle cx="217.17" cy="23.71" r="1.75"/><circle cx="129.46" cy="49.1" r="1.75"/><circle cx="135.15" cy="47.76" r="1.75"/><circle cx="140.84" cy="46.43" r="1.75"/><circle cx="146.53" cy="45.09" r="1.75"/><circle cx="152.22" cy="43.76" r="1.75"/><circle cx="157.91" cy="42.42" r="1.75"/><circle cx="163.6" cy="41.09" r="1.75"/><circle cx="169.29" cy="39.75" r="1.75"/><circle cx="174.99" cy="38.42" r="1.75"/><circle cx="180.68" cy="37.08" r="1.75"/><circle cx="186.37" cy="35.74" r="1.75"/><circle cx="192.06" cy="34.41" r="1.75"/><circle cx="197.75" cy="33.07" r="1.75"/><circle cx="203.44" cy="31.74" r="1.75"/><circle cx="209.13" cy="30.4" r="1.75"/><circle cx="214.82" cy="29.07" r="1.75"/><circle cx="133.94" cy="52.85" r="1.75"/><circle cx="139.63" cy="51.51" r="1.75"/><circle cx="145.32" cy="50.18" r="1.75"/><circle cx="151.02" cy="48.84" r="1.75"/><circle cx="156.71" cy="47.51" r="1.75"/><circle cx="162.4" cy="46.17" r="1.75"/><circle cx="168.09" cy="44.84" r="1.75"/><circle cx="173.78" cy="43.5" r="1.75"/><circle cx="179.47" cy="42.17" r="1.75"/><circle cx="185.16" cy="40.83" r="1.75"/><circle cx="190.85" cy="39.5" r="1.75"/><circle cx="196.54" cy="38.16" r="1.75"/><circle cx="202.23" cy="36.83" r="1.75"/><circle cx="207.92" cy="35.49" r="1.75"/><circle cx="213.61" cy="34.15" r="1.75"/><circle cx="219.3" cy="32.82" r="1.75"/><circle cx="131.6" cy="58.2" r="1.75"/><circle cx="137.29" cy="56.87" r="1.75"/><circle cx="142.98" cy="55.53" r="1.75"/><circle cx="148.67" cy="54.2" r="1.75"/><circle cx="154.36" cy="52.86" r="1.75"/><circle cx="160.05" cy="51.53" r="1.75"/><circle cx="165.74" cy="50.19" r="1.75"/><circle cx="171.43" cy="48.86" r="1.75"/><circle cx="177.12" cy="47.52" r="1.75"/><circle cx="182.81" cy="46.18" r="1.75"/><circle cx="188.5" cy="44.85" r="1.75"/><circle cx="194.19" cy="43.51" r="1.75"/><circle cx="199.88" cy="42.18" r="1.75"/><circle cx="205.57" cy="40.84" r="1.75"/><circle cx="211.26" cy="39.51" r="1.75"/><circle cx="216.96" cy="38.17" r="1.75"/><circle cx="136.08" cy="61.95" r="1.75"/><circle cx="141.77" cy="60.62" r="1.75"/><circle cx="147.46" cy="59.28" r="1.75"/><circle cx="153.15" cy="57.95" r="1.75"/><circle cx="158.84" cy="56.61" r="1.75"/><circle cx="164.53" cy="55.28" r="1.75"/><circle cx="170.22" cy="53.94" r="1.75"/><circle cx="175.91" cy="52.61" r="1.75"/><circle cx="181.6" cy="51.27" r="1.75"/><circle cx="187.29" cy="49.94" r="1.75"/><circle cx="192.99" cy="48.6" r="1.75"/><circle cx="198.68" cy="47.27" r="1.75"/><circle cx="204.37" cy="45.93" r="1.75"/><circle cx="210.06" cy="44.59" r="1.75"/><circle cx="215.75" cy="43.26" r="1.75"/><circle cx="221.44" cy="41.92" r="1.75"/><circle cx="133.73" cy="67.31" r="1.75"/><circle cx="139.42" cy="65.97" r="1.75"/><circle cx="145.12" cy="64.64" r="1.75"/><circle cx="150.81" cy="63.3" r="1.75"/><circle cx="156.5" cy="61.97" r="1.75"/><circle cx="162.19" cy="60.63" r="1.75"/><circle cx="167.88" cy="59.3" r="1.75"/><circle cx="173.57" cy="57.96" r="1.75"/><circle cx="179.26" cy="56.62" r="1.75"/><circle cx="184.95" cy="55.29" r="1.75"/><circle cx="190.64" cy="53.95" r="1.75"/><circle cx="196.33" cy="52.62" r="1.75"/><circle cx="202.02" cy="51.28" r="1.75"/><circle cx="207.71" cy="49.95" r="1.75"/><circle cx="213.4" cy="48.61" r="1.75"/><circle cx="219.09" cy="47.28" r="1.75"/><circle cx="138.22" cy="71.06" r="1.75"/><circle cx="143.91" cy="69.72" r="1.75"/><circle cx="149.6" cy="68.39" r="1.75"/><circle cx="155.29" cy="67.05" r="1.75"/><circle cx="160.98" cy="65.72" r="1.75"/><circle cx="166.67" cy="64.38" r="1.75"/><circle cx="172.36" cy="63.05" r="1.75"/><circle cx="178.05" cy="61.71" r="1.75"/><circle cx="183.74" cy="60.38" r="1.75"/><circle cx="189.43" cy="59.04" r="1.75"/><circle cx="195.12" cy="57.71" r="1.75"/><circle cx="200.81" cy="56.37" r="1.75"/><circle cx="206.5" cy="55.04" r="1.75"/><circle cx="212.19" cy="53.7" r="1.75"/><circle cx="217.88" cy="52.36" r="1.75"/><circle cx="223.57" cy="51.03" r="1.75"/><circle cx="135.87" cy="76.41" r="1.75"/><circle cx="141.56" cy="75.08" r="1.75"/><circle cx="147.25" cy="73.74" r="1.75"/><circle cx="152.94" cy="72.41" r="1.75"/><circle cx="158.63" cy="71.07" r="1.75"/><circle cx="164.32" cy="69.74" r="1.75"/><circle cx="170.01" cy="68.4" r="1.75"/><circle cx="175.7" cy="67.06" r="1.75"/><circle cx="181.39" cy="65.73" r="1.75"/><circle cx="187.09" cy="64.39" r="1.75"/><circle cx="192.78" cy="63.06" r="1.75"/><circle cx="198.47" cy="61.72" r="1.75"/><circle cx="204.16" cy="60.39" r="1.75"/><circle cx="209.85" cy="59.05" r="1.75"/><circle cx="215.54" cy="57.72" r="1.75"/><circle cx="221.23" cy="56.38" r="1.75"/><circle cx="140.35" cy="80.16" r="1.75"/><circle cx="146.04" cy="78.83" r="1.75"/><circle cx="151.73" cy="77.49" r="1.75"/><circle cx="157.42" cy="76.16" r="1.75"/><circle cx="163.11" cy="74.82" r="1.75"/><circle cx="168.81" cy="73.49" r="1.75"/><circle cx="174.5" cy="72.15" r="1.75"/><circle cx="180.19" cy="70.82" r="1.75"/><circle cx="185.88" cy="69.48" r="1.75"/><circle cx="191.57" cy="68.15" r="1.75"/><circle cx="197.26" cy="66.81" r="1.75"/><circle cx="202.95" cy="65.48" r="1.75"/><circle cx="208.64" cy="64.14" r="1.75"/><circle cx="214.33" cy="62.8" r="1.75"/><circle cx="220.02" cy="61.47" r="1.75"/><circle cx="225.71" cy="60.13" r="1.75"/><circle cx="138.01" cy="85.52" r="1.75"/><circle cx="143.7" cy="84.18" r="1.75"/><circle cx="149.39" cy="82.85" r="1.75"/><circle cx="155.08" cy="81.51" r="1.75"/><circle cx="160.77" cy="80.18" r="1.75"/><circle cx="166.46" cy="78.84" r="1.75"/><circle cx="172.15" cy="77.5" r="1.75"/><circle cx="177.84" cy="76.17" r="1.75"/><circle cx="183.53" cy="74.83" r="1.75"/><circle cx="189.22" cy="73.5" r="1.75"/><circle cx="194.91" cy="72.16" r="1.75"/><circle cx="200.6" cy="70.83" r="1.75"/><circle cx="206.29" cy="69.49" r="1.75"/><circle cx="211.98" cy="68.16" r="1.75"/><circle cx="217.67" cy="66.82" r="1.75"/><circle cx="223.36" cy="65.49" r="1.75"/><circle cx="142.49" cy="89.27" r="1.75"/><circle cx="148.18" cy="87.93" r="1.75"/><circle cx="153.87" cy="86.6" r="1.75"/><circle cx="159.56" cy="85.26" r="1.75"/><circle cx="165.25" cy="83.93" r="1.75"/><circle cx="170.94" cy="82.59" r="1.75"/><circle cx="176.63" cy="81.26" r="1.75"/><circle cx="182.32" cy="79.92" r="1.75"/><circle cx="188.01" cy="78.59" r="1.75"/><circle cx="193.7" cy="77.25" r="1.75"/><circle cx="199.39" cy="75.92" r="1.75"/><circle cx="205.08" cy="74.58" r="1.75"/><circle cx="210.78" cy="73.24" r="1.75"/><circle cx="216.47" cy="71.91" r="1.75"/><circle cx="222.16" cy="70.57" r="1.75"/><circle cx="227.85" cy="69.24" r="1.75"/><circle cx="140.14" cy="94.62" r="1.75"/><circle cx="145.83" cy="93.29" r="1.75"/><circle cx="151.52" cy="91.95" r="1.75"/><circle cx="157.21" cy="90.62" r="1.75"/><circle cx="162.91" cy="89.28" r="1.75"/><circle cx="168.6" cy="87.94" r="1.75"/><circle cx="174.29" cy="86.61" r="1.75"/><circle cx="179.98" cy="85.27" r="1.75"/><circle cx="185.67" cy="83.94" r="1.75"/><circle cx="191.36" cy="82.6" r="1.75"/><circle cx="197.05" cy="81.27" r="1.75"/><circle cx="202.74" cy="79.93" r="1.75"/><circle cx="208.43" cy="78.6" r="1.75"/><circle cx="214.12" cy="77.26" r="1.75"/><circle cx="219.81" cy="75.93" r="1.75"/><circle cx="225.5" cy="74.59" r="1.75"/><circle cx="144.63" cy="98.37" r="1.75"/><circle cx="150.32" cy="97.04" r="1.75"/><circle cx="156.01" cy="95.7" r="1.75"/><circle cx="161.7" cy="94.37" r="1.75"/><circle cx="167.39" cy="93.03" r="1.75"/><circle cx="173.08" cy="91.7" r="1.75"/><circle cx="178.77" cy="90.36" r="1.75"/><circle cx="184.46" cy="89.03" r="1.75"/><circle cx="190.15" cy="87.69" r="1.75"/><circle cx="195.84" cy="86.36" r="1.75"/><circle cx="201.53" cy="85.02" r="1.75"/><circle cx="207.22" cy="83.68" r="1.75"/><circle cx="212.91" cy="82.35" r="1.75"/><circle cx="218.6" cy="81.01" r="1.75"/><circle cx="224.29" cy="79.68" r="1.75"/><circle cx="229.98" cy="78.34" r="1.75"/></g><path d="M160,319s-14,12-10,24c0,0,3,4-1,6-5,0-5-10-5-10s-1-10,12-24Z" transform="translate(-143.98 -105.44)"/></svg>