<svg id="panpipeID" data-name="Layer 1" xmlns="http://www.w3.org/2000/svg" viewBox="0 0 316 304"><defs><style>.cls-1{stroke:#000;stroke-miterlimit:10;}.cls-2{fill:#fff;}
#panpipeID:hover
{
	fill:#C19A6B;
	background-color:#C2B09C;
}
</style></defs><title>panpipe</title><path class="cls-1" d="M119.5,86.48v17h-22v-17a5,5,0,0,1,5-5h12A5,5,0,0,1,119.5,86.48Z" transform="translate(-86 -81)"/><path class="cls-1" d="M97.5,137.5h22v242a5,5,0,0,1-5,5h-12a5,5,0,0,1-5-5Z" transform="translate(-86 -81)"/><path class="cls-1" d="M153.5,86.48v17h-22v-17a5,5,0,0,1,5-5h12A5,5,0,0,1,153.5,86.48Z" transform="translate(-86 -81)"/><path class="cls-1" d="M131.5,137.5h22v212a5,5,0,0,1-5,5h-12a5,5,0,0,1-5-5Z" transform="translate(-86 -81)"/><path class="cls-1" d="M187.5,86.48v17h-22v-17a5,5,0,0,1,5-5h12A5,5,0,0,1,187.5,86.48Z" transform="translate(-86 -81)"/><path class="cls-1" d="M165.5,137.5h22v167a5,5,0,0,1-5,5h-12a5,5,0,0,1-5-5Z" transform="translate(-86 -81)"/><path class="cls-1" d="M222.5,86.48v17h-22v-17a5,5,0,0,1,5-5h12A5,5,0,0,1,222.5,86.48Z" transform="translate(-86 -81)"/><path class="cls-1" d="M200.5,137.5h22v137a5,5,0,0,1-5,5h-12a5,5,0,0,1-5-5Z" transform="translate(-86 -81)"/><path class="cls-1" d="M256.5,86.48v17h-22v-17a5,5,0,0,1,5-5h12A5,5,0,0,1,256.5,86.48Z" transform="translate(-86 -81)"/><path class="cls-1" d="M234.5,137.5h22v108a5,5,0,0,1-5,5h-12a5,5,0,0,1-5-5Z" transform="translate(-86 -81)"/><path class="cls-1" d="M290.5,86.48v17h-22v-17a5,5,0,0,1,5-5h12A5,5,0,0,1,290.5,86.48Z" transform="translate(-86 -81)"/><path class="cls-1" d="M268.5,137.5h22v77a5,5,0,0,1-5,5h-12a5,5,0,0,1-5-5Z" transform="translate(-86 -81)"/><path class="cls-1" d="M324.5,86.48v17h-22v-17a5,5,0,0,1,5-5h12A5,5,0,0,1,324.5,86.48Z" transform="translate(-86 -81)"/><path class="cls-1" d="M302.5,137.5h22v63a5,5,0,0,1-5,5h-12a5,5,0,0,1-5-5Z" transform="translate(-86 -81)"/><path class="cls-1" d="M358.5,86.48v17h-22v-17a5,5,0,0,1,5-5h12A5,5,0,0,1,358.5,86.48Z" transform="translate(-86 -81)"/><path class="cls-1" d="M336.5,137.5h22v47a5,5,0,0,1-5,5h-12a5,5,0,0,1-5-5Z" transform="translate(-86 -81)"/><path class="cls-1" d="M392.5,86.48v17h-22v-17a5,5,0,0,1,5-5h12A5,5,0,0,1,392.5,86.48Z" transform="translate(-86 -81)"/><path class="cls-1" d="M370.5,137.5h22v33a5,5,0,0,1-5,5h-12a5,5,0,0,1-5-5Z" transform="translate(-86 -81)"/><rect class="cls-1" x="0.5" y="34.5" width="315" height="11" rx="5.5"/><circle class="cls-2" cx="23" cy="13" r="7"/><circle class="cls-2" cx="57" cy="13" r="7"/><circle class="cls-2" cx="91" cy="13" r="7"/><circle class="cls-2" cx="126" cy="13" r="7"/><circle class="cls-2" cx="159" cy="13" r="7"/><circle class="cls-2" cx="193" cy="13" r="7"/><circle class="cls-2" cx="228" cy="13" r="7"/><circle class="cls-2" cx="262" cy="13" r="7"/><circle class="cls-2" cx="296" cy="13" r="7"/></svg>