<svg id="tabnourineID" data-name="Layer 1" xmlns="http://www.w3.org/2000/svg" viewBox="0 0 402.64 374.15"><defs><style>.cls-1{fill:#fff;}
#tabnourineID:hover
{
	fill:#FFDEAD;
	background-color:#8B4513;
}
</style></defs><title>Tabourine</title><ellipse cx="200.83" cy="202.52" rx="167.82" ry="171.63"/><ellipse class="cls-1" cx="200.83" cy="202.52" rx="142.49" ry="145.73"/><path d="M90.29,285.85l-1.62-34S68.43,271.27,90.29,285.85Z" transform="translate(-60.28 -59.85)"/><path d="M91.1,292.32l4.05,17s-41.29-8.9-34-49.38c0,0,4.85-24.29,30.76-30.77l-2.43,17S57.91,265.61,91.1,292.32Z" transform="translate(-60.28 -59.85)"/><path d="M123.49,257.51s.8-19.43,1.61-21c0,0,18.62,11.34,16.2,37.24,0,0-2.43,16.19-13,25.1l-4.85-20.24S129.15,269.65,123.49,257.51Z" transform="translate(-60.28 -59.85)"/><path d="M432.91,285.85l1.62-34S454.77,271.27,432.91,285.85Z" transform="translate(-60.28 -59.85)"/><path d="M432.1,292.32l-4,17s41.28-8.9,34-49.38c0,0-4.86-24.29-30.77-30.77l2.43,17S465.3,265.61,432.1,292.32Z" transform="translate(-60.28 -59.85)"/><path d="M399.72,257.51s-.81-19.43-1.62-21c0,0-18.62,11.34-16.19,37.24,0,0,2.43,16.19,12.95,25.1l4.86-20.24S394.05,269.65,399.72,257.51Z" transform="translate(-60.28 -59.85)"/><path d="M280.61,90.09l-34-2.09S266.35,68,280.61,90.09Z" transform="translate(-60.28 -59.85)"/><path d="M287.08,91,304,95.28s-8.32-41.41-48.9-34.69c0,0-24.35,4.51-31.19,30.32l17-2.18S260.83,57.43,287.08,91Z" transform="translate(-60.28 -59.85)"/><path d="M251.81,122.88s-19.44.54-21.07,1.33c0,0,11.07,18.77,37,16.71,0,0,16.23-2.2,25.28-12.6l-20.17-5.14S263.88,128.72,251.81,122.88Z" transform="translate(-60.28 -59.85)"/><path d="M147,128.65l-22.6,25.46S120.86,126.28,147,128.65Z" transform="translate(-60.28 -59.85)"/><path d="M151.72,124.12l13.82-10.69s-37.73-19-57.47,17.1c0,0-11.46,21.95,4.64,43.26L121.49,159S109.11,124.08,151.72,124.12Z" transform="translate(-60.28 -59.85)"/><path d="M155.07,171.55s-11.56,15.63-11.95,17.4c0,0,21.61,2.87,36-18.83,0,0,8.28-14.12,5.67-27.66l-16.48,12.7S167.11,165.65,155.07,171.55Z" transform="translate(-60.28 -59.85)"/><path d="M372.29,127.84,394.9,153.3S398.46,125.47,372.29,127.84Z" transform="translate(-60.28 -59.85)"/><path d="M367.6,123.31l-13.82-10.69s37.73-19,57.46,17.1c0,0,11.47,21.95-4.63,43.26l-8.78-14.76S410.21,123.27,367.6,123.31Z" transform="translate(-60.28 -59.85)"/><path d="M364.24,170.74s11.57,15.63,12,17.4c0,0-21.61,2.87-36-18.83,0,0-8.27-14.12-5.67-27.66L351,154.35S352.21,164.84,364.24,170.74Z" transform="translate(-60.28 -59.85)"/><path d="M147,398l-22.6-25.45S120.86,400.35,147,398Z" transform="translate(-60.28 -59.85)"/><path d="M151.72,402.5l13.82,10.7s-37.73,19-57.47-17.1c0,0-11.46-22,4.64-43.26l8.78,14.76S109.11,402.54,151.72,402.5Z" transform="translate(-60.28 -59.85)"/><path d="M155.07,355.08s-11.56-15.64-11.95-17.41c0,0,21.61-2.86,36,18.83,0,0,8.28,14.13,5.67,27.67l-16.48-12.71S167.11,361,155.07,355.08Z" transform="translate(-60.28 -59.85)"/><path d="M372.29,398.78l22.61-25.45S398.46,401.16,372.29,398.78Z" transform="translate(-60.28 -59.85)"/><path d="M367.6,403.31,353.78,414s37.73,19,57.46-17.1c0,0,11.47-22-4.63-43.26l-8.78,14.76S410.21,403.35,367.6,403.31Z" transform="translate(-60.28 -59.85)"/><path d="M364.24,355.89s11.57-15.64,12-17.41c0,0-21.61-2.86-36,18.83,0,0-8.27,14.13-5.67,27.67L351,372.27S352.21,361.78,364.24,355.89Z" transform="translate(-60.28 -59.85)"/></svg>