<svg id="trioID" data-name="Layer 1" xmlns="http://www.w3.org/2000/svg" viewBox="0 0 364.41 359.42"><defs><style>.cls-1{fill:#fff;}
#trioID:hover
{
	fill:#2B2D2F;
	background-color:lightgrey;
}
</style></defs><title>Tringle</title><path d="M341,398h0a18,18,0,0,1-18,18H93.43A26.43,26.43,0,0,1,67,389.57h0a36.2,36.2,0,0,1,4.73-17.89L208.42,131.1a29.85,29.85,0,0,1,26-15.1H242a29.84,29.84,0,0,1,25.64,14.58L381.73,322.11a16.31,16.31,0,0,1-5.55,22.28h0a16.3,16.3,0,0,1-22.54-5.72L250,161l-19-2L103,381l220-.92A18,18,0,0,1,341,398Z" transform="translate(-67 -66)"/><path d="M171.5,0h0A17.5,17.5,0,0,1,189,17.5V94.2A16.8,16.8,0,0,1,172.2,111H170.8A16.8,16.8,0,0,1,154,94.2V17.5A17.5,17.5,0,0,1,171.5,0Z"/><rect class="cls-1" x="166" y="12" width="11" height="87" rx="5.5"/><path d="M236.5,248h0A17.5,17.5,0,0,1,254,265.5v76.7A16.8,16.8,0,0,1,237.2,359H235.8A16.8,16.8,0,0,1,219,342.2V265.5A17.5,17.5,0,0,1,236.5,248Z" transform="translate(-212.89 280.22) rotate(-58.45)"/><rect class="cls-1" x="231" y="260" width="11" height="87" rx="5.5" transform="matrix(0.52, -0.85, 0.85, 0.52, -212.89, 280.22)"/><rect x="348.52" y="285.89" width="11" height="179.74" rx="5.5" transform="translate(-218.45 414.81) rotate(-58.45)"/></svg>